# xmcd
#
# Track frame offsets:
#	150
#	18217
#	37955
#	53085
#	70100
#	87523
#	102886
#	117965
#	134353
#	148063
#	161808
#	174313
#	197854
#	210431
#	232567
#	252550
#	270443
#	286692
#	305120
#
# Disc length: 4357 seconds
#
# Revision: 0
# Processed by: cddbd v1.5.1PL2 Copyright (c) Steve Scherf et al.
# Submitted via: EasyCDDAExtractor 9.0.0.1
#
DISCID=06110313
DTITLE=Paolo Conte - Tournée
DYEAR=1993
DGENRE=Club
TTITLE0=Ouverture alla russa
TTITLE1=Fuga all'inglese
TTITLE2=Come Mi Vuoi
TTITLE3=Colleghi trascurati
TTITLE4=Pittori della domenica
TTITLE5=Ho ballato di tutto
TTITLE6=Anni
TTITLE7=Baci senza memoria
TTITLE8=Happy feet, musica per i vostri piedi, madame
TTITLE9=Macaco
TTITLE10=Lupi spelacchiati
TTITLE11=Sparring partner
TTITLE12=Il Maestro
TTITLE13=Madeleine
TTITLE14=Azzurro
TTITLE15=Pretend, pretend
TTITLE16=Reveries
TTITLE17=Luxury bound (nessuno mi ama)
TTITLE18=Bye, music
EXTD=
EXTT0=
EXTT1=
EXTT2=
EXTT3=
EXTT4=
EXTT5=
EXTT6=
EXTT7=
EXTT8=
EXTT9=
EXTT10=
EXTT11=
EXTT12=
EXTT13=
EXTT14=
EXTT15=
EXTT16=
EXTT17=
EXTT18=
PLAYORDER=
